<svg width="65" height="64" viewBox="0 0 65 64" fill="none" xmlns="http://www.w3.org/2000/svg">
<path d="M8.75 48V32C8.75 25.6348 11.2786 19.5303 15.7794 15.0294C20.2803 10.5286 26.3848 8 32.75 8C39.1152 8 45.2197 10.5286 49.7206 15.0294C54.2214 19.5303 56.75 25.6348 56.75 32V48" stroke="#FECE01" stroke-width="2" stroke-linecap="round" stroke-linejoin="round"/>
<path d="M56.75 50.6667C56.75 52.0812 56.1881 53.4377 55.1879 54.4379C54.1877 55.4381 52.8312 56 51.4167 56H48.75C47.3355 56 45.979 55.4381 44.9788 54.4379C43.9786 53.4377 43.4167 52.0812 43.4167 50.6667V42.6667C43.4167 41.2522 43.9786 39.8957 44.9788 38.8955C45.979 37.8953 47.3355 37.3334 48.75 37.3334H56.75V50.6667ZM8.75 50.6667C8.75 52.0812 9.3119 53.4377 10.3121 54.4379C11.3123 55.4381 12.6688 56 14.0833 56H16.75C18.1645 56 19.521 55.4381 20.5212 54.4379C21.5214 53.4377 22.0833 52.0812 22.0833 50.6667V42.6667C22.0833 41.2522 21.5214 39.8957 20.5212 38.8955C19.521 37.8953 18.1645 37.3334 16.75 37.3334H8.75V50.6667Z" stroke="#FECE01" stroke-width="2" stroke-linecap="round" stroke-linejoin="round"/>
</svg>
